<svg width="29" height="33" viewBox="0 0 29 33" fill="none" xmlns="http://www.w3.org/2000/svg">
<path d="M19.4996 11H4.50043C3.12161 11 2.00058 12.121 2.00058 13.4999V24.7492C2.00058 26.128 3.12161 27.249 4.50043 27.249H8.25021V30.5301C8.25021 30.9129 8.68769 31.1355 8.99626 30.909L13.8749 27.249H19.4996C20.8784 27.249 21.9994 26.128 21.9994 24.7492V13.4999C21.9994 12.121 20.8784 11 19.4996 11Z" fill="#727682"/>
<path d="M21 16C25.4183 16 29 12.4183 29 8C29 3.58172 25.4183 0 21 0C16.5817 0 13 3.58172 13 8C13 12.4183 16.5817 16 21 16Z" fill="#6231AD"/>
<path d="M19.0527 6.55371V5.8125C19.751 5.74447 20.238 5.63167 20.5137 5.47412C20.7894 5.31299 20.9953 4.93522 21.1313 4.34082H21.894V12H20.8628V6.55371H19.0527Z" fill="white"/>
</svg>
