<svg width="24" height="24" viewBox="0 0 24 24" fill="none" xmlns="http://www.w3.org/2000/svg">
<circle cx="12" cy="12" r="11.5" fill="white" stroke="#EEEAF3"/>
<path d="M13.9896 8.99923L15.5555 10.5652C15.6215 10.6312 15.6215 10.7388 15.5555 10.8048L11.7639 14.5965L10.1528 14.7753C9.93749 14.7996 9.7552 14.6173 9.7795 14.402L9.95832 12.7909L13.75 8.99923C13.816 8.93325 13.9236 8.93325 13.9896 8.99923ZM16.8021 8.60166L15.9548 7.75444C15.691 7.49055 15.2621 7.49055 14.9965 7.75444L14.3819 8.36902C14.316 8.43499 14.316 8.54263 14.3819 8.6086L15.9479 10.1746C16.0139 10.2405 16.1215 10.2405 16.1875 10.1746L16.8021 9.55999C17.066 9.29437 17.066 8.86555 16.8021 8.60166ZM13.6667 13.5652V15.3326H8.1111V9.777H12.1007C12.1562 9.777 12.2083 9.75444 12.2483 9.71624L12.9427 9.0218C13.0746 8.88985 12.9809 8.66589 12.7951 8.66589H7.83332C7.37325 8.66589 6.99999 9.03916 6.99999 9.49923V15.6103C6.99999 16.0704 7.37325 16.4437 7.83332 16.4437H13.9444C14.4045 16.4437 14.7778 16.0704 14.7778 15.6103V12.8708C14.7778 12.685 14.5538 12.593 14.4219 12.7232L13.7274 13.4176C13.6892 13.4576 13.6667 13.5096 13.6667 13.5652Z" fill="#727682"/>
</svg>
